<svg id="visual" viewBox="0 0 960 540" width="960" height="540" xmlns="http://www.w3.org/2000/svg" xmlns:xlink="http://www.w3.org/1999/xlink" version="1.1"><rect x="0" y="0" width="960" height="540" fill="#368ed2"></rect><path d="M0 318L53.3 297.3C106.7 276.7 213.3 235.3 320 218.8C426.7 202.3 533.3 210.7 640 229C746.7 247.3 853.3 275.7 906.7 289.8L960 304L960 541L906.7 541C853.3 541 746.7 541 640 541C533.3 541 426.7 541 320 541C213.3 541 106.7 541 53.3 541L0 541Z" fill="#239b40"></path><path d="M0 401L53.3 400.2C106.7 399.3 213.3 397.7 320 388.2C426.7 378.7 533.3 361.3 640 344.8C746.7 328.3 853.3 312.7 906.7 304.8L960 297L960 541L906.7 541C853.3 541 746.7 541 640 541C533.3 541 426.7 541 320 541C213.3 541 106.7 541 53.3 541L0 541Z" fill="#1a7b29"></path><path d="M0 458L53.3 445.5C106.7 433 213.3 408 320 406.3C426.7 404.7 533.3 426.3 640 426.8C746.7 427.3 853.3 406.7 906.7 396.3L960 386L960 541L906.7 541C853.3 541 746.7 541 640 541C533.3 541 426.7 541 320 541C213.3 541 106.7 541 53.3 541L0 541Z" fill="#0e5d13"></path></svg>